<?xml version="1.0" encoding="iso-8859-1"?>
<!-- Generator: Adobe Illustrator 16.0.0, SVG Export Plug-In . SVG Version: 6.00 Build 0)  -->
<!DOCTYPE svg PUBLIC "-//W3C//DTD SVG 1.1//EN" "http://www.w3.org/Graphics/SVG/1.1/DTD/svg11.dtd">
<svg version="1.1" id="Capa_1" xmlns="http://www.w3.org/2000/svg" xmlns:xlink="http://www.w3.org/1999/xlink" x="0px" y="0px"
	 width="56.85px" height="56.85px" viewBox="0 0 56.85 56.85" style="enable-background:new 0 0 56.85 56.85;" xml:space="preserve"
	>
<g>
	<g>
		<path d="M47.716,45.675c-3.14,0.512-5.567,2.532-5.747,5.846c0.409,7.598,11.922,6.608,12.305-0.518
			C54.457,47.597,50.848,45.166,47.716,45.675z M50.602,55.119c0.192-0.258,0.224-0.464,0.049-0.512
			c-0.228-0.061-0.76,0.235-1.196,0.684c-0.19,0.193-0.353,0.365-0.479,0.506c-0.707,0.126-1.465,0.07-2.213-0.223
			c-0.968-0.38-1.673-1.108-2.145-1.979c0.408,0.088,0.964-0.124,1.416-0.589c0.669-0.688,0.988-1.697,0.852-2.297
			c-0.08-0.356-0.123-0.726-0.123-1.105c0-0.099,0.008-0.194,0.021-0.289c0.021-0.16-0.593,0.346-1.371,1.13
			c-0.088,0.088-0.175,0.177-0.263,0.266c-0.488,0.49-0.873,1.133-1.019,1.689c-0.129-0.459-0.204-0.932-0.229-1.396
			c0.037-0.674,0.193-1.313,0.441-1.889c0.215-0.179,0.481-0.426,0.775-0.722c0.363-0.366,0.725-0.729,1.084-1.094
			c0.162-0.163,0.302-0.315,0.426-0.456c0.825-0.3,1.793-0.311,2.854,0.106c1.853,0.728,2.763,2.718,2.861,4.571
			C52.424,53.047,51.699,54.35,50.602,55.119z"/>
		<path d="M6.259,22.304C2.914,22.485,0.185,24.808,0,28.242c0.415,7.708,11.921,7.325,12.325-0.17
			C12.499,24.839,9.387,22.136,6.259,22.304z M5.941,32.649c-0.437-0.022-0.834-0.143-1.21-0.305c0.416-0.05,0.906-0.287,1.273-0.65
			c0.546-0.538,0.648-1.204,0.295-1.56s-1.084-0.179-1.705,0.463c-0.436,0.45-0.657,0.97-0.607,1.329
			c-0.813-0.589-1.417-1.468-1.746-2.435c0.364,0.06,0.875-0.163,1.331-0.631c0.733-0.753,1.283-1.584,1.255-1.86
			c-0.018-0.166-0.026-0.333-0.026-0.503c0-0.615,0.112-1.202,0.314-1.746c0.342-0.924,0.252-0.91-0.535-0.135
			c-0.498,0.489-0.997,0.979-1.497,1.472c-0.387,0.381-0.738,0.743-0.999,1.025c0.45-2.039,1.978-3.576,4.299-3.451
			c2.339,0.126,3.876,2.443,3.991,4.578C10.509,30.749,8.395,32.781,5.941,32.649z"/>
		<path d="M53.133,5.527c0.411-7.634-11.914-7.034-12.306,0.242c-0.002,0.027,0.017,0.042,0.019,0.067
			c-0.002,0.024-0.02,0.045-0.019,0.07C41.234,13.469,52.745,12.729,53.133,5.527z M43.104,3.826
			c0.209-0.104,0.485-0.316,0.801-0.64c0.508-0.522,1.007-1.037,1.5-1.545c0.164-0.169,0.301-0.326,0.418-0.473
			c0.506-0.129,1.064-0.162,1.68-0.062c2.078,0.339,3.355,2.317,3.669,4.234c0.448,2.753-1.966,5.295-4.712,4.848
			c-0.259-0.042-0.499-0.116-0.73-0.203c0.177-0.155,0.528-0.487,0.935-0.883c0.565-0.55,1.007-1.008,0.987-1.024
			C47.629,8.061,47.155,8.5,46.59,9.056c-0.408,0.404-0.749,0.752-0.9,0.918c-1.064-0.412-1.851-1.27-2.34-2.289
			c0.332-0.055,0.806-0.367,1.244-0.869c0.688-0.784,1.148-1.727,1.086-2.116c-0.039-0.232-0.061-0.469-0.061-0.712
			c0-0.051,0.006-0.1,0.013-0.147c0.011-0.08-0.608,0.497-1.38,1.288c-0.062,0.064-0.124,0.128-0.186,0.192
			c-0.479,0.49-0.862,1.059-1.043,1.518c-0.139-0.457-0.229-0.927-0.258-1.391C42.805,4.883,42.919,4.335,43.104,3.826z"/>
		<path d="M50.059,12.802c-5.438,3.044-12.019-1.143-11.445-6.977c0.035-0.362-0.319-0.45-0.607-0.486
			c-4.654-0.58-8.938,0.054-13.25,1.882c-0.338,0.143-0.719,0.455-0.498,0.841c1.687,2.933,3.373,5.866,5.061,8.8
			c0.166,0.289,0.791,0.221,1.037,0.144c1.16-0.443,2.356-0.668,3.586-0.688c5.5,0.331,9.393,3.702,10.791,8.97
			c0.064,0.242,0.387,0.334,0.603,0.335c3.394,0.015,6.785,0.028,10.179,0.043c0.449,0.002,1.42-0.223,1.33-0.852
			c-0.65-4.594-2.365-8.481-5.279-12.069C51.221,12.321,50.43,12.595,50.059,12.802z M54.707,23.909
			c0.074,0.233,0.156,0.434,0.245,0.596c-0.203-0.023-0.44-0.035-0.712-0.036c-0.08,0-0.16-0.001-0.24-0.001
			c0.242-0.113,0.464-0.252,0.609-0.409C54.659,24.005,54.678,23.959,54.707,23.909z M54.576,23.437
			c-0.076-0.027-0.166-0.048-0.281-0.048c-0.518-0.001-1.234,0.293-1.607,0.66c-0.158,0.158-0.205,0.297-0.185,0.412
			c-1.442-0.007-2.885-0.013-4.327-0.018c-1.104-0.005-1.763-0.762-2.299-1.728c-1.049-1.888-3.212-4.674-3.419-4.826
			c-0.524-0.387-1.051-0.719-1.58-1.017c0.481,0.029,1.056-0.163,1.478-0.557c0.578-0.538,0.606-1.205,0.037-1.433
			c-0.568-0.227-1.477,0.037-2.004,0.526c-0.384,0.355-0.473,0.756-0.298,1.055c-1.028-0.493-2.088-0.844-3.22-1.063
			c0.354-0.101,0.743-0.296,1.031-0.562c0.447-0.414,0.677-0.757,0.511-0.766c-0.101-0.006-0.2-0.01-0.302-0.01
			c-0.195,0-0.389,0.006-0.581,0.017c-0.32,0.018-0.886,0.336-1.263,0.69c-0.205,0.193-0.277,0.367-0.244,0.496
			c-0.446-0.061-0.901-0.11-1.375-0.139c-0.062-0.004-0.125,0.002-0.188,0.011c-0.022,0.001-0.034-0.005-0.058-0.003
			c-0.307,0.019-1.146,0.154-1.926,0.287c0.164-0.123,0.334-0.259,0.494-0.404c0.428-0.394,0.717-0.814,0.644-0.942
			c-0.074-0.128-0.599,0.24-1.171,0.821c-0.248,0.252-0.43,0.462-0.555,0.627c-0.566,0.099-1.002,0.178-1.004,0.175
			c-0.273-0.474-0.546-0.947-0.818-1.421c0.27-0.117,0.699-0.444,1.164-0.919c0.687-0.7,1.17-1.392,1.082-1.545
			c-0.09-0.153-0.73,0.266-1.431,0.938c-0.476,0.456-0.833,0.908-0.991,1.217c-0.439-0.764-0.879-1.527-1.318-2.292
			c-0.521-0.907-1.043-1.814-1.565-2.722c0.367,0.045,0.857-0.193,1.298-0.688c0.572-0.643,0.952-1.286,0.97-1.592
			c2.359-0.348,5.468-0.396,6.341-0.356c1.774,0.082,1.298,2.517,1.952,4.064c0.731,1.727,2.25,2.858,3.777,3.809
			c2.516,1.562,5.521,1.203,8.131,0.143c0.371-0.15,0.662-0.303,0.867-0.438c0.065,0.296,0.286,0.729,0.633,1.228
			c1.756,2.535,2.92,5.233,3.578,8.235C54.562,23.388,54.57,23.412,54.576,23.437z"/>
		<path d="M27.163,18.831c0.026-0.055-0.427-0.884-0.977-1.841c-1.366-2.378-2.732-4.755-4.099-7.132
			c-0.279-0.487-1.549,0.086-1.842,0.326c-2.37,1.947-4.222,4.086-5.815,6.693c-1.041,1.704-1.652,3.623-2.186,5.53
			c-0.002,0.007,1.912,2.753,2.227,3.442c1.277,2.804,0.045,6.031-1.725,8.276c-0.375,0.477,0.882,2.634,1.078,3.069
			c1.483,3.31,4.106,5.993,6.934,8.172c0.386,0.298,1.653-0.084,1.862-0.5c1.547-3.062,3.094-6.128,4.641-9.191
			c0.019-0.038,0.006-0.069-0.031-0.093c-0.003-0.024,0.008-0.051-0.013-0.071c-4.144-4.371-4.628-10.258-1.366-15.033
			C26.474,19.567,27.137,18.886,27.163,18.831z M24.041,20.767c-0.1,0.151-0.201,0.305-0.301,0.456
			c-0.607,0.923-1.515,2.481-1.743,3.562c-0.196,0.933-0.26,1.897-0.325,2.845c-0.224,3.231,1.528,6.193,3.646,8.456
			c-1.233,2.443-2.469,4.889-3.702,7.334c-0.072,0.143-0.131,0.276-0.182,0.405c-0.115-0.129-0.243-0.261-0.396-0.397
			c-0.194-0.175-0.368-0.364-0.556-0.543c0.341-0.062,0.78-0.31,1.178-0.718c0.604-0.62,0.88-1.335,0.628-1.604
			c-0.253-0.269-0.962,0.015-1.593,0.643c-0.411,0.408-0.657,0.852-0.715,1.189c-1.222-1.234-2.303-2.575-3.247-4.062
			c0.358-0.001,0.837-0.235,1.274-0.667c0.686-0.679,1.019-1.614,0.768-2.107c-0.25-0.491-1.002-0.312-1.703,0.411
			c-0.45,0.465-0.761,1.023-0.858,1.483c-0.15-0.26-0.314-0.505-0.457-0.772c-0.347-0.646-0.488-1.285-0.508-1.922
			c0.292-0.105,0.641-0.339,0.986-0.693c0.733-0.75,1.304-1.427,1.271-1.512c-0.032-0.084,0.587-0.797,1.127-1.761
			c0.229-0.405,0.423-0.833,0.581-1.278c0.369-1.042-0.197-1.317-0.984-0.542c-0.313,0.309-0.627,0.618-0.941,0.927
			c-0.454,0.446-0.932,1.037-1.347,1.593c0.393-1.114,0.826-2.241,0.94-3.397c0.096-0.965-0.096-1.791-0.393-2.561
			c0.282-0.111,0.707-0.428,1.165-0.888c0.744-0.748,1.254-1.563,1.12-1.81c-0.134-0.247-0.826,0.139-1.529,0.852
			c-0.459,0.464-0.803,0.953-0.974,1.325c-0.52-1.143-1.2-2.186-1.426-3.4c0.24-0.203,0.516-0.456,0.799-0.743
			c0.142-0.143,0.283-0.286,0.425-0.43c0.777-0.785,1.665-2.248,2.082-3.231c0.417-0.982,0.194-1.115-0.595-0.342
			c-0.562,0.552-1.127,1.105-1.693,1.659c-0.31,0.304-0.619,0.651-0.892,0.995c0.03-0.103,0.051-0.203,0.089-0.31
			c1.089-3.051,3.089-5.653,5.434-7.847c0.095-0.089,0.18-0.172,0.26-0.253c0.06,0.294,0.193,0.637,0.399,0.995
			c1.015,1.766,2.03,3.532,3.045,5.298C24.747,18.365,24.651,19.847,24.041,20.767z"/>
		<path d="M56.214,29.137c-3.391-0.015-6.78-0.028-10.173-0.043c-0.13-0.001-0.268,0.031-0.4,0.082
			c-0.422,0.096-0.834,0.324-0.922,0.655c-1.68,6.271-7.402,9.806-13.811,7.885c-0.482-0.145-1.242,0.046-1.484,0.525
			c-1.522,3.015-3.045,6.026-4.566,9.039c-0.168,0.331,0.039,0.565,0.344,0.682c4.491,1.711,8.854,2.131,13.58,1.277
			c0.446-0.08,0.94-0.249,1.077-0.733c1.188-4.229,4.428-6.898,9.484-5.464c0.448,0.128,1.047-0.013,1.365-0.365
			c3.387-3.771,5.382-7.971,6.13-12.986C56.891,29.346,56.512,29.138,56.214,29.137z M54.273,31.966
			c-1.185,3.224-2.19,10.323-5.182,9.475c-0.294-0.083-0.59-0.137-0.888-0.174c0.08-0.072,0.163-0.151,0.249-0.238
			c0.302-0.304,0.188-0.471-0.24-0.323c-0.355,0.121-0.727,0.344-0.939,0.517c-1.508,0.021-3.018,0.5-4.379,1.061
			c-1.791,0.739-3.033,2.293-4.055,3.854c-0.689,1.056-0.732,1.591-1.34,1.905c0.001-0.001,0.004-0.002,0.005-0.004
			c0.312-0.336-0.116-0.604-0.956-0.673c-0.838-0.068-1.846,0.159-2.258,0.572c-0.096,0.095-0.163,0.186-0.216,0.271
			c-1.571-0.211-3.774-0.55-5.357-0.75c-0.265-0.033-0.491-0.107-0.679-0.209c0.247-0.137,0.521-0.345,0.767-0.595
			c0.495-0.507,0.874-0.927,0.844-0.937s0.131-0.383,0.356-0.832c0.228-0.448-0.253-0.21-1.07,0.533
			c-0.167,0.151-0.333,0.303-0.499,0.453c-0.378,0.345-0.674,0.674-0.86,0.94c-0.192-0.337-0.188-0.775,0.06-1.267
			c0.904-1.789,1.807-3.579,2.711-5.368c0.219-0.433,0.351-0.801,0.399-1.072c0.231,0.103,0.558,0.197,0.965,0.265
			c6.55,1.06,12.614-2.485,14.718-8.983c2.323,0.009,4.646,0.02,6.971,0.029C54.506,30.422,54.655,30.929,54.273,31.966z"/>
		<path d="M46.402,17.897c0.097-0.095,0.111-0.239,0.035-0.323c-0.078-0.085-0.666,0.355-1.311,0.98
			c-0.645,0.624-1.109,1.201-1.04,1.288s0.575-0.273,1.132-0.807c0.342-0.327,0.678-0.65,1.008-0.967
			C46.282,18.014,46.342,17.956,46.402,17.897z"/>
		<path d="M30.212,9.453c-0.009,0.008-0.019,0.017-0.024,0.025c-0.014,0.014,0.095-0.089,0.24-0.232s0.153-0.157,0.022-0.027
			C30.371,9.295,30.292,9.374,30.212,9.453z"/>
		<path d="M45.566,17.942c-0.282,0.277-0.562,0.55-0.84,0.822c-0.467,0.454-0.834,0.834-0.824,0.848
			c0.012,0.014,0.453-0.402,0.982-0.934C45.602,17.96,45.904,17.642,45.566,17.942z"/>
		<path d="M46.535,20.467c-0.694,0.673-1.221,1.293-1.172,1.387c0.047,0.093,0.674-0.354,1.402-0.997
			c0.729-0.643,1.258-1.264,1.176-1.386C47.859,19.35,47.23,19.795,46.535,20.467z"/>
	</g>
</g>
<g>
</g>
<g>
</g>
<g>
</g>
<g>
</g>
<g>
</g>
<g>
</g>
<g>
</g>
<g>
</g>
<g>
</g>
<g>
</g>
<g>
</g>
<g>
</g>
<g>
</g>
<g>
</g>
<g>
</g>
</svg>
